<svg xmlns="http://www.w3.org/2000/svg" xmlns:xlink="http://www.w3.org/1999/xlink" width="500" zoomAndPan="magnify" viewBox="0 0 375 374.999991" height="500" preserveAspectRatio="xMidYMid meet" version="1.0"><defs><g/><clipPath id="2441e3ae69"><path d="M 14.382812 163.621094 L 360.882812 163.621094 L 360.882812 203.371094 L 14.382812 203.371094 Z M 14.382812 163.621094 " clip-rule="nonzero"/></clipPath></defs><g fill="#523e27" fill-opacity="1"><g transform="translate(139.979028, 250.154939)"><g><path d="M 215.515625 -144.671875 C 215.972656 -144.671875 216.203125 -144.207031 216.203125 -143.28125 C 216.203125 -142.363281 215.972656 -141.90625 215.515625 -141.90625 C 204.554688 -141.90625 196.453125 -135.269531 191.203125 -122 L 143.0625 -0.234375 C 142.90625 0.378906 142.054688 0.6875 140.515625 0.6875 C 139.273438 0.6875 138.425781 0.378906 137.96875 -0.234375 L 107.875 -65.28125 L 82.171875 -0.234375 C 82.023438 0.378906 81.175781 0.6875 79.625 0.6875 C 78.394531 0.6875 77.546875 0.378906 77.078125 -0.234375 L 19.4375 -125.46875 C 16.507812 -131.789062 13.691406 -136.109375 10.984375 -138.421875 C 8.285156 -140.742188 4.625 -141.90625 0 -141.90625 C -0.457031 -141.90625 -0.6875 -142.363281 -0.6875 -143.28125 C -0.6875 -144.207031 -0.457031 -144.671875 0 -144.671875 L 7.875 -144.453125 C 12.195312 -144.140625 15.820312 -143.984375 18.75 -143.984375 C 25.070312 -143.984375 31.628906 -144.140625 38.421875 -144.453125 C 40.742188 -144.597656 43.753906 -144.671875 47.453125 -144.671875 C 47.921875 -144.671875 48.15625 -144.207031 48.15625 -143.28125 C 48.15625 -142.363281 47.921875 -141.90625 47.453125 -141.90625 C 42.972656 -141.90625 39.691406 -141.398438 37.609375 -140.390625 C 35.523438 -139.390625 34.484375 -137.65625 34.484375 -135.1875 C 34.484375 -132.875 35.410156 -129.632812 37.265625 -125.46875 L 85.1875 -22.6875 L 104.859375 -71.984375 L 80.09375 -125.46875 C 77.46875 -131.332031 74.765625 -135.535156 71.984375 -138.078125 C 69.210938 -140.628906 65.820312 -141.90625 61.8125 -141.90625 C 61.34375 -141.90625 61.109375 -142.363281 61.109375 -143.28125 C 61.109375 -144.207031 61.34375 -144.671875 61.8125 -144.671875 L 69.671875 -144.453125 C 73.378906 -144.140625 76.695312 -143.984375 79.625 -143.984375 C 84.875 -143.984375 89.96875 -144.140625 94.90625 -144.453125 C 96.445312 -144.597656 98.53125 -144.671875 101.15625 -144.671875 C 101.625 -144.671875 101.859375 -144.207031 101.859375 -143.28125 C 101.859375 -142.363281 101.625 -141.90625 101.15625 -141.90625 C 98.375 -141.90625 96.40625 -141.632812 95.25 -141.09375 C 94.09375 -140.550781 93.515625 -139.585938 93.515625 -138.203125 C 93.515625 -136.503906 94.984375 -132.257812 97.921875 -125.46875 L 113.65625 -91.671875 L 126.15625 -123.15625 C 128.164062 -127.78125 129.171875 -131.632812 129.171875 -134.71875 C 129.171875 -139.507812 126.082031 -141.90625 119.90625 -141.90625 C 119.601562 -141.90625 119.453125 -142.363281 119.453125 -143.28125 C 119.453125 -144.207031 119.601562 -144.671875 119.90625 -144.671875 L 125 -144.453125 C 127.78125 -144.140625 131.175781 -143.984375 135.1875 -143.984375 C 138.113281 -143.984375 141.585938 -144.140625 145.609375 -144.453125 L 154.859375 -144.671875 C 155.171875 -144.671875 155.328125 -144.207031 155.328125 -143.28125 C 155.328125 -142.363281 155.171875 -141.90625 154.859375 -141.90625 C 149.765625 -141.90625 145.289062 -140.398438 141.4375 -137.390625 C 137.582031 -134.378906 134.265625 -129.25 131.484375 -122 L 116.671875 -85.1875 L 146.0625 -22.6875 L 185.65625 -122.453125 C 186.882812 -125.847656 187.5 -128.78125 187.5 -131.25 C 187.5 -138.351562 181.941406 -141.90625 170.828125 -141.90625 C 170.367188 -141.90625 170.140625 -142.363281 170.140625 -143.28125 C 170.140625 -144.207031 170.367188 -144.671875 170.828125 -144.671875 L 180.796875 -144.453125 C 186.035156 -144.140625 190.738281 -143.984375 194.90625 -143.984375 C 198.144531 -143.984375 201.773438 -144.140625 205.796875 -144.453125 Z M 215.515625 -144.671875 "/></g></g></g><g fill="#523e27" fill-opacity="1"><g transform="translate(24.250744, 250.154939)"><g><path d="M 162.5 -2.78125 C 163.113281 -2.78125 163.421875 -2.316406 163.421875 -1.390625 C 163.421875 -0.460938 163.113281 0 162.5 0 C 159.570312 0 155.019531 -0.15625 148.84375 -0.46875 C 142.664062 -0.769531 138.113281 -0.921875 135.1875 -0.921875 C 131.632812 -0.921875 127.238281 -0.769531 122 -0.46875 C 117.050781 -0.15625 113.191406 0 110.421875 0 C 109.796875 0 109.484375 -0.460938 109.484375 -1.390625 C 109.484375 -2.316406 109.796875 -2.78125 110.421875 -2.78125 C 115.972656 -2.78125 119.941406 -3.28125 122.328125 -4.28125 C 124.722656 -5.28125 125.921875 -7.09375 125.921875 -9.71875 C 125.921875 -12.03125 124.84375 -15.503906 122.6875 -20.140625 L 102.78125 -61.8125 L 47.453125 -61.8125 L 33.796875 -30.09375 C 31.785156 -25.46875 30.78125 -21.222656 30.78125 -17.359375 C 30.78125 -7.640625 38.265625 -2.78125 53.234375 -2.78125 C 54.015625 -2.78125 54.40625 -2.316406 54.40625 -1.390625 C 54.40625 -0.460938 54.015625 0 53.234375 0 C 50.460938 0 46.453125 -0.15625 41.203125 -0.46875 C 35.335938 -0.769531 30.242188 -0.921875 25.921875 -0.921875 C 22.066406 -0.921875 17.363281 -0.769531 11.8125 -0.46875 C 7.175781 -0.15625 3.238281 0 0 0 C -0.769531 0 -1.15625 -0.460938 -1.15625 -1.390625 C -1.15625 -2.316406 -0.769531 -2.78125 0 -2.78125 C 4.320312 -2.78125 7.988281 -3.585938 11 -5.203125 C 14.007812 -6.828125 16.898438 -9.722656 19.671875 -13.890625 C 22.453125 -18.054688 25.539062 -24.148438 28.9375 -32.171875 L 77.78125 -146.53125 C 78.082031 -146.988281 78.695312 -147.21875 79.625 -147.21875 C 80.550781 -147.21875 81.09375 -146.988281 81.25 -146.53125 L 136.34375 -31.71875 C 141.59375 -20.445312 146.066406 -12.804688 149.765625 -8.796875 C 153.472656 -4.785156 157.71875 -2.78125 162.5 -2.78125 Z M 49.53125 -66.671875 L 100.46875 -66.671875 L 73.609375 -122.6875 Z M 49.53125 -66.671875 "/></g></g></g><g clip-path="url(#2441e3ae69)"><path fill="#e8cfc1" d="M 14.421875 163.621094 L 360.84375 163.621094 L 360.84375 203.371094 L 14.421875 203.371094 L 14.421875 163.621094 " fill-opacity="1" fill-rule="nonzero"/></g><g fill="#523e27" fill-opacity="1"><g transform="translate(73.144242, 193.619201)"><g><path d="M 24.6875 -7.144531 C 24.390625 -7.472656 23.886719 -7.5 23.5625 -7.203125 C 23.476562 -7.117188 14.707031 0.769531 9.273438 -2.804688 C 7.117188 -4.222656 6.585938 -7.648438 6.585938 -7.675781 C 6.554688 -8.03125 6.289062 -8.296875 5.933594 -8.355469 C 5.609375 -8.386719 5.257812 -8.207031 5.109375 -7.914062 C 3.71875 -4.84375 1.269531 -0.945312 0.589844 -1.386719 C 0.53125 -1.386719 0.414062 -1.507812 0.324219 -1.710938 C -0.03125 -2.6875 0.0898438 -3.75 0.589844 -4.664062 C 1.710938 -6.96875 3.78125 -8.621094 6.261719 -9.242188 C 6.527344 -9.300781 6.734375 -9.507812 6.820312 -9.773438 C 6.910156 -10.039062 6.820312 -10.335938 6.644531 -10.542969 C 6.4375 -10.71875 6.171875 -10.808594 5.90625 -10.75 C 2.953125 -10.039062 0.503906 -8.03125 -0.828125 -5.316406 C -1.535156 -3.988281 -1.625 -2.390625 -1.0625 -1.003906 C -0.796875 -0.324219 -0.148438 0.148438 0.589844 0.148438 L 0.621094 0.148438 C 2.066406 0.117188 3.867188 -1.683594 5.109375 -3.632812 C 5.257812 -3.867188 5.523438 -3.988281 5.789062 -3.957031 C 6.054688 -3.957031 6.289062 -3.808594 6.40625 -3.574219 C 6.910156 -2.746094 7.589844 -2.039062 8.414062 -1.535156 C 14.851562 2.746094 24.214844 -5.699219 24.625 -6.054688 C 24.773438 -6.199219 24.863281 -6.40625 24.863281 -6.585938 C 24.890625 -6.792969 24.804688 -7 24.6875 -7.144531 Z M 24.6875 -7.144531 "/></g></g></g><g fill="#523e27" fill-opacity="1"><g transform="translate(96.999116, 193.619201)"><g><path d="M 25.808594 -7.351562 C 25.628906 -7.472656 25.453125 -7.558594 25.246094 -7.558594 C 25.039062 -7.53125 24.832031 -7.441406 24.714844 -7.292969 C 24.625 -7.234375 18.128906 -0.296875 12.492188 -2.570312 C 11.28125 -3.21875 10.304688 -4.191406 9.625 -5.402344 C 9.390625 -5.789062 9.09375 -6.171875 8.742188 -6.527344 C 8.355469 -7 7.765625 -7.265625 7.144531 -7.292969 C 5.640625 -7.410156 3.808594 -6.40625 1.625 -4.339844 C 1.566406 -4.28125 1.476562 -4.253906 1.386719 -4.3125 C 1.300781 -4.339844 1.238281 -4.457031 1.269531 -4.546875 L 1.917969 -7.441406 C 2.039062 -7.855469 1.773438 -8.296875 1.359375 -8.386719 C 0.945312 -8.476562 0.53125 -8.207031 0.414062 -7.796875 L -1.0625 -1.328125 C -1.152344 -0.972656 -0.972656 -0.621094 -0.648438 -0.472656 C -0.324219 -0.296875 0.0585938 -0.382812 0.296875 -0.648438 C 4.253906 -5.285156 6.261719 -5.730469 6.96875 -5.757812 C 7.675781 -5.789062 8.121094 -4.871094 8.355469 -4.519531 C 9.183594 -3.070312 10.421875 -1.890625 11.898438 -1.152344 C 18.515625 1.535156 25.542969 -5.933594 25.835938 -6.261719 C 26.132812 -6.554688 26.101562 -7.058594 25.808594 -7.351562 Z M 25.808594 -7.351562 "/></g></g></g><g fill="#523e27" fill-opacity="1"><g transform="translate(121.592062, 193.619201)"><g><path d="M 24.6875 -7.144531 C 24.390625 -7.472656 23.886719 -7.5 23.5625 -7.203125 C 23.476562 -7.117188 14.707031 0.769531 9.273438 -2.804688 C 7.117188 -4.222656 6.585938 -7.648438 6.585938 -7.675781 C 6.554688 -8.03125 6.289062 -8.296875 5.933594 -8.355469 C 5.609375 -8.386719 5.257812 -8.207031 5.109375 -7.914062 C 3.71875 -4.84375 1.269531 -0.945312 0.589844 -1.386719 C 0.53125 -1.386719 0.414062 -1.507812 0.324219 -1.710938 C -0.03125 -2.6875 0.0898438 -3.75 0.589844 -4.664062 C 1.710938 -6.96875 3.78125 -8.621094 6.261719 -9.242188 C 6.527344 -9.300781 6.734375 -9.507812 6.820312 -9.773438 C 6.910156 -10.039062 6.820312 -10.335938 6.644531 -10.542969 C 6.4375 -10.71875 6.171875 -10.808594 5.90625 -10.75 C 2.953125 -10.039062 0.503906 -8.03125 -0.828125 -5.316406 C -1.535156 -3.988281 -1.625 -2.390625 -1.0625 -1.003906 C -0.796875 -0.324219 -0.148438 0.148438 0.589844 0.148438 L 0.621094 0.148438 C 2.066406 0.117188 3.867188 -1.683594 5.109375 -3.632812 C 5.257812 -3.867188 5.523438 -3.988281 5.789062 -3.957031 C 6.054688 -3.957031 6.289062 -3.808594 6.40625 -3.574219 C 6.910156 -2.746094 7.589844 -2.039062 8.414062 -1.535156 C 14.851562 2.746094 24.214844 -5.699219 24.625 -6.054688 C 24.773438 -6.199219 24.863281 -6.40625 24.863281 -6.585938 C 24.890625 -6.792969 24.804688 -7 24.6875 -7.144531 Z M 24.6875 -7.144531 "/></g></g></g><g fill="#523e27" fill-opacity="1"><g transform="translate(145.446937, 193.619201)"><g/></g></g><g fill="#523e27" fill-opacity="1"><g transform="translate(156.429626, 193.619201)"><g><path d="M 9.597656 0 C 9.949219 0.03125 10.246094 -0.207031 10.335938 -0.503906 C 10.453125 -0.828125 10.335938 -1.179688 10.070312 -1.386719 C 9.65625 -1.683594 9.300781 -2.039062 8.945312 -2.390625 C 8.769531 -2.570312 8.679688 -2.804688 8.679688 -3.042969 C 8.679688 -3.277344 8.800781 -3.484375 8.945312 -3.660156 C 10.542969 -5.136719 11.78125 -6.96875 11.722656 -8.535156 C 11.664062 -9.625 10.984375 -10.601562 9.949219 -11.015625 C 9.566406 -11.191406 9.09375 -11.042969 8.917969 -10.660156 C 8.710938 -10.277344 8.886719 -9.804688 9.273438 -9.625 C 10.039062 -9.242188 10.15625 -8.769531 10.15625 -8.476562 C 10.21875 -7.410156 9.210938 -5.996094 7.882812 -4.785156 C 7.738281 -4.636719 7.558594 -4.578125 7.351562 -4.578125 C 7.144531 -4.605469 6.96875 -4.695312 6.851562 -4.84375 C 6.054688 -5.90625 5.316406 -7 4.636719 -8.148438 C 4.429688 -8.503906 4.398438 -8.945312 4.546875 -9.332031 C 4.871094 -10.246094 5.226562 -11.132812 5.492188 -11.839844 C 7.410156 -16.859375 8.535156 -20.019531 7.558594 -21.40625 C 7.234375 -21.878906 6.703125 -22.144531 6.171875 -22.117188 C 6.082031 -22.117188 5.996094 -22.085938 5.933594 -22.085938 C 2.953125 -21.171875 1.238281 -19.429688 0.769531 -16.832031 C 0.355469 -14.5 1.152344 -11.753906 2.390625 -9.152344 C 2.539062 -8.828125 2.570312 -8.445312 2.449219 -8.089844 C 1.300781 -4.664062 0.828125 -1.976562 2.390625 -1.035156 C 3.574219 -0.355469 5.316406 -1.121094 6.554688 -1.832031 C 7.117188 -2.15625 7.265625 -1.949219 7.351562 -1.859375 C 7.882812 -1.238281 8.503906 -0.648438 9.152344 -0.148438 C 9.273438 -0.03125 9.449219 0 9.597656 0 Z M 5.699219 -3.808594 C 5.933594 -3.515625 5.996094 -3.277344 5.550781 -3.042969 C 4.253906 -2.304688 3.425781 -2.246094 3.1875 -2.363281 C 2.65625 -2.6875 2.921875 -4.253906 3.484375 -6.113281 C 3.515625 -6.230469 3.601562 -6.320312 3.75 -6.347656 C 3.867188 -6.347656 3.988281 -6.289062 4.046875 -6.171875 C 4.578125 -5.34375 5.167969 -4.546875 5.699219 -3.808594 Z M 2.304688 -16.566406 C 2.628906 -18.515625 5.050781 -20.996094 6.289062 -20.550781 C 7.175781 -20.199219 5.050781 -15.03125 4.046875 -12.402344 C 3.898438 -12.046875 3.78125 -11.691406 3.660156 -11.367188 C 3.542969 -11.101562 3.277344 -10.894531 3.101562 -11.308594 C 2.363281 -12.964844 2.097656 -14.792969 2.304688 -16.566406 Z M 2.304688 -16.566406 "/></g></g></g><g fill="#523e27" fill-opacity="1"><g transform="translate(168.829437, 193.619201)"><g/></g></g><g fill="#523e27" fill-opacity="1"><g transform="translate(179.812127, 193.619201)"><g><path d="M 29.144531 -7.796875 C 28.847656 -8.121094 28.347656 -8.148438 28.050781 -7.855469 C 24.09375 -4.519531 18.808594 -3.308594 13.820312 -4.519531 C 13.703125 -4.546875 13.582031 -4.578125 13.496094 -4.605469 C 13.140625 -4.695312 12.84375 -4.929688 12.667969 -5.285156 C 12.519531 -5.609375 12.492188 -5.996094 12.636719 -6.320312 C 13.109375 -7.382812 13.316406 -8.386719 12.902344 -8.917969 C 12.550781 -9.332031 11.929688 -9.449219 11.488281 -9.125 C 9.714844 -8.269531 8.886719 -7.292969 9.007812 -6.171875 C 9.035156 -5.847656 9.183594 -5.523438 9.359375 -5.257812 C 9.65625 -4.785156 9.625 -4.222656 9.300781 -3.808594 C 8.859375 -3.25 8.355469 -2.746094 7.796875 -2.332031 C 7.292969 -2.007812 6.910156 -1.917969 6.644531 -2.066406 C 5.996094 -2.421875 6.320312 -4.695312 6.792969 -6.140625 C 6.9375 -6.527344 6.734375 -6.96875 6.320312 -7.117188 C 5.90625 -7.265625 5.460938 -7.058594 5.316406 -6.644531 C 4.753906 -5.109375 3.425781 -2.511719 2.214844 -2.007812 C 2.007812 -1.917969 1.773438 -1.917969 1.566406 -2.007812 C 1.328125 -2.125 1.152344 -2.332031 1.09375 -2.570312 C 0.589844 -4.015625 1.742188 -6.910156 2.246094 -7.914062 C 2.421875 -8.296875 2.273438 -8.742188 1.890625 -8.945312 C 1.507812 -9.125 1.035156 -8.976562 0.828125 -8.59375 C 0.621094 -8.148438 -1.179688 -4.339844 -0.382812 -2.066406 C -0.148438 -1.417969 0.296875 -0.886719 0.914062 -0.589844 C 1.210938 -0.441406 1.566406 -0.382812 1.890625 -0.382812 C 2.214844 -0.382812 2.511719 -0.441406 2.804688 -0.5625 C 3.160156 -0.707031 3.453125 -0.914062 3.71875 -1.152344 C 4.222656 -1.566406 4.960938 -1.566406 5.402344 -1.09375 C 5.550781 -0.945312 5.730469 -0.796875 5.933594 -0.707031 C 6.792969 -0.234375 8.296875 -0.175781 10.335938 -2.628906 C 10.511719 -2.835938 10.6875 -3.128906 10.953125 -3.425781 C 11.132812 -3.660156 11.425781 -3.71875 11.691406 -3.601562 C 12.253906 -3.367188 12.84375 -3.160156 13.464844 -3.011719 C 18.957031 -1.683594 24.773438 -3.042969 29.085938 -6.703125 C 29.234375 -6.851562 29.320312 -7.027344 29.320312 -7.234375 C 29.351562 -7.441406 29.261719 -7.648438 29.144531 -7.796875 Z M 10.75 -5.996094 C 10.628906 -6.082031 10.570312 -6.230469 10.542969 -6.347656 C 10.511719 -6.554688 10.75 -6.878906 11.367188 -7.292969 C 11.191406 -6.851562 10.984375 -6.40625 10.75 -5.996094 Z M 10.75 -5.996094 "/></g></g></g><g fill="#523e27" fill-opacity="1"><g transform="translate(207.859315, 193.619201)"><g><path d="M 19.132812 -7.972656 C 18.808594 -8.269531 18.335938 -8.269531 18.042969 -7.941406 C 17.921875 -7.855469 8.355469 1.890625 2.007812 -2.746094 C 0.0585938 -4.164062 1.949219 -7.855469 1.976562 -7.882812 C 2.15625 -8.269531 2.007812 -8.710938 1.625 -8.917969 C 1.238281 -9.09375 0.796875 -8.976562 0.589844 -8.59375 C 0.472656 -8.414062 -1.917969 -3.71875 1.09375 -1.507812 C 2.480469 -0.472656 4.191406 0.0898438 5.933594 0.0585938 C 12.3125 0.0585938 18.78125 -6.527344 19.132812 -6.878906 C 19.28125 -7.027344 19.371094 -7.203125 19.371094 -7.410156 C 19.339844 -7.617188 19.28125 -7.824219 19.132812 -7.972656 Z M 0.265625 -10.304688 C 0.382812 -10.304688 0.503906 -10.335938 0.621094 -10.394531 C 1.328125 -10.75 1.949219 -11.222656 2.511719 -11.78125 C 2.804688 -12.105469 2.777344 -12.578125 2.480469 -12.875 C 2.15625 -13.167969 1.683594 -13.167969 1.386719 -12.84375 C 0.945312 -12.402344 0.441406 -12.046875 -0.117188 -11.753906 C -0.414062 -11.605469 -0.589844 -11.222656 -0.503906 -10.894531 C -0.414062 -10.542969 -0.0898438 -10.304688 0.265625 -10.304688 Z M 0.265625 -10.304688 "/></g></g></g><g fill="#523e27" fill-opacity="1"><g transform="translate(225.986658, 193.619201)"><g><path d="M 25.808594 -7.351562 C 25.628906 -7.472656 25.453125 -7.558594 25.246094 -7.558594 C 25.039062 -7.53125 24.832031 -7.441406 24.714844 -7.292969 C 24.625 -7.234375 18.128906 -0.296875 12.492188 -2.570312 C 11.28125 -3.21875 10.304688 -4.191406 9.625 -5.402344 C 9.390625 -5.789062 9.09375 -6.171875 8.742188 -6.527344 C 8.355469 -7 7.765625 -7.265625 7.144531 -7.292969 C 5.640625 -7.410156 3.808594 -6.40625 1.625 -4.339844 C 1.566406 -4.28125 1.476562 -4.253906 1.386719 -4.3125 C 1.300781 -4.339844 1.238281 -4.457031 1.269531 -4.546875 L 1.917969 -7.441406 C 2.039062 -7.855469 1.773438 -8.296875 1.359375 -8.386719 C 0.945312 -8.476562 0.53125 -8.207031 0.414062 -7.796875 L -1.0625 -1.328125 C -1.152344 -0.972656 -0.972656 -0.621094 -0.648438 -0.472656 C -0.324219 -0.296875 0.0585938 -0.382812 0.296875 -0.648438 C 4.253906 -5.285156 6.261719 -5.730469 6.96875 -5.757812 C 7.675781 -5.789062 8.121094 -4.871094 8.355469 -4.519531 C 9.183594 -3.070312 10.421875 -1.890625 11.898438 -1.152344 C 18.515625 1.535156 25.542969 -5.933594 25.835938 -6.261719 C 26.132812 -6.554688 26.101562 -7.058594 25.808594 -7.351562 Z M 25.808594 -7.351562 "/></g></g></g><g fill="#523e27" fill-opacity="1"><g transform="translate(250.579603, 193.619201)"><g><path d="M 27.933594 -6.761719 C 27.785156 -6.910156 27.609375 -6.96875 27.402344 -7 C 27.195312 -7 26.988281 -6.910156 26.839844 -6.761719 C 22.382812 -2.390625 15.886719 -0.886719 13.167969 -1.742188 C 10.867188 -2.480469 9.804688 -4.578125 9.332031 -6.792969 C 9.242188 -7.292969 9.332031 -7.765625 9.597656 -8.179688 C 13.140625 -14.203125 16.890625 -22.882812 15.589844 -24.980469 C 15.296875 -25.453125 14.765625 -25.691406 14.203125 -25.601562 C 10.925781 -25.1875 8.121094 -18.394531 7.558594 -12.34375 C 7.441406 -11.042969 7.441406 -9.773438 7.53125 -8.503906 C 7.558594 -8.089844 7.472656 -7.675781 7.234375 -7.324219 C 7.058594 -7.027344 6.851562 -6.703125 6.644531 -6.40625 C 4.046875 -2.570312 2.273438 -1.328125 1.535156 -1.417969 C 1.152344 -1.445312 0.828125 -1.710938 0.738281 -2.066406 C 0.441406 -3.574219 0.796875 -5.109375 1.652344 -6.347656 C 2.273438 -7.085938 3.1875 -7.914062 4.074219 -7.738281 C 4.578125 -7.589844 4.992188 -7.203125 5.195312 -6.734375 C 5.285156 -6.320312 5.667969 -6.023438 6.082031 -6.082031 C 6.496094 -6.140625 6.792969 -6.527344 6.734375 -6.96875 C 6.4375 -8.03125 5.640625 -8.859375 4.578125 -9.183594 C 3.660156 -9.480469 2.183594 -9.359375 0.472656 -7.351562 C -0.472656 -6.261719 -1.417969 -3.367188 -0.707031 -1.507812 C -0.414062 -0.621094 0.382812 0 1.300781 0.117188 C 1.386719 0.117188 1.507812 0.117188 1.59375 0.117188 C 3.160156 0.117188 5.136719 -1.566406 7.472656 -4.902344 C 7.558594 -5.019531 7.738281 -5.109375 7.914062 -5.078125 C 8.089844 -5.078125 8.238281 -4.960938 8.296875 -4.8125 C 8.945312 -2.65625 10.601562 -0.972656 12.695312 -0.265625 C 16.179688 0.828125 23.269531 -1.121094 27.933594 -5.667969 C 28.230469 -5.964844 28.230469 -6.4375 27.933594 -6.761719 Z M 9.125 -12.195312 C 9.597656 -17.597656 11.753906 -22.351562 13.582031 -23.710938 C 13.730469 -23.800781 13.9375 -23.828125 14.113281 -23.710938 C 14.261719 -23.621094 14.351562 -23.445312 14.351562 -23.269531 C 14.085938 -21.023438 12.492188 -16.980469 9.539062 -11.722656 C 9.066406 -10.953125 9.066406 -11.664062 9.125 -12.195312 Z M 9.125 -12.195312 "/></g></g></g><g fill="#523e27" fill-opacity="1"><g transform="translate(277.445852, 193.619201)"><g><path d="M 25.601562 -8.296875 C 25.453125 -8.445312 25.246094 -8.503906 25.039062 -8.503906 C 24.832031 -8.503906 24.65625 -8.414062 24.507812 -8.269531 C 21.851562 -5.460938 15.886719 -1.359375 11.515625 -1.359375 L 11.457031 -1.359375 C 10.246094 -1.300781 9.09375 -1.773438 8.269531 -2.628906 C 7.203125 -3.78125 7.941406 -6.910156 8.296875 -7.914062 C 8.445312 -8.296875 8.269531 -8.710938 7.914062 -8.859375 C 7.589844 -9.035156 7.144531 -8.945312 6.9375 -8.621094 C 4.664062 -5.316406 1.417969 -2.097656 0.355469 -2.714844 C 0 -2.953125 0.53125 -5.226562 1.976562 -7.796875 C 2.15625 -8.148438 2.039062 -8.59375 1.683594 -8.800781 C 1.328125 -9.007812 0.855469 -8.917969 0.648438 -8.5625 C -0.355469 -6.820312 -2.449219 -2.597656 -0.441406 -1.386719 C 1.152344 -0.441406 3.308594 -1.976562 5.109375 -3.839844 C 5.285156 -4.046875 5.550781 -4.105469 5.789062 -4.015625 C 6.023438 -3.957031 6.199219 -3.75 6.261719 -3.484375 C 6.347656 -2.777344 6.644531 -2.125 7.117188 -1.566406 C 8.238281 -0.382812 9.804688 0.265625 11.425781 0.207031 L 11.515625 0.207031 C 16.386719 0.207031 22.707031 -4.105469 25.628906 -7.175781 C 25.777344 -7.351562 25.835938 -7.53125 25.835938 -7.738281 C 25.835938 -7.941406 25.75 -8.148438 25.601562 -8.296875 Z M 25.601562 -8.296875 "/></g></g></g><g fill="#523e27" fill-opacity="1"><g transform="translate(92.198003, 295.483046)"><g><path d="M 25.8125 -17.328125 C 25.863281 -17.328125 25.890625 -17.269531 25.890625 -17.15625 C 25.890625 -17.039062 25.863281 -16.984375 25.8125 -16.984375 C 24.5 -16.984375 23.523438 -16.191406 22.890625 -14.609375 L 17.125 -0.03125 C 17.113281 0.0390625 17.015625 0.078125 16.828125 0.078125 C 16.679688 0.078125 16.578125 0.0390625 16.515625 -0.03125 L 12.921875 -7.8125 L 9.84375 -0.03125 C 9.820312 0.0390625 9.71875 0.078125 9.53125 0.078125 C 9.382812 0.078125 9.285156 0.0390625 9.234375 -0.03125 L 2.328125 -15.03125 C 1.972656 -15.78125 1.632812 -16.289062 1.3125 -16.5625 C 0.988281 -16.84375 0.550781 -16.984375 0 -16.984375 C -0.0507812 -16.984375 -0.078125 -17.039062 -0.078125 -17.15625 C -0.078125 -17.269531 -0.0507812 -17.328125 0 -17.328125 L 0.9375 -17.296875 C 1.457031 -17.253906 1.894531 -17.234375 2.25 -17.234375 C 3 -17.234375 3.78125 -17.253906 4.59375 -17.296875 C 4.875 -17.316406 5.238281 -17.328125 5.6875 -17.328125 C 5.738281 -17.328125 5.765625 -17.269531 5.765625 -17.15625 C 5.765625 -17.039062 5.738281 -16.984375 5.6875 -16.984375 C 5.144531 -16.984375 4.75 -16.921875 4.5 -16.796875 C 4.25 -16.679688 4.125 -16.476562 4.125 -16.1875 C 4.125 -15.90625 4.238281 -15.519531 4.46875 -15.03125 L 10.203125 -2.71875 L 12.5625 -8.625 L 9.59375 -15.03125 C 9.28125 -15.726562 8.957031 -16.226562 8.625 -16.53125 C 8.289062 -16.832031 7.882812 -16.984375 7.40625 -16.984375 C 7.34375 -16.984375 7.3125 -17.039062 7.3125 -17.15625 C 7.3125 -17.269531 7.34375 -17.328125 7.40625 -17.328125 L 8.34375 -17.296875 C 8.789062 -17.253906 9.1875 -17.234375 9.53125 -17.234375 C 10.164062 -17.234375 10.773438 -17.253906 11.359375 -17.296875 C 11.546875 -17.316406 11.796875 -17.328125 12.109375 -17.328125 C 12.171875 -17.328125 12.203125 -17.269531 12.203125 -17.15625 C 12.203125 -17.039062 12.171875 -16.984375 12.109375 -16.984375 C 11.773438 -16.984375 11.539062 -16.953125 11.40625 -16.890625 C 11.269531 -16.828125 11.203125 -16.710938 11.203125 -16.546875 C 11.203125 -16.347656 11.375 -15.84375 11.71875 -15.03125 L 13.609375 -10.984375 L 15.109375 -14.75 C 15.347656 -15.300781 15.46875 -15.757812 15.46875 -16.125 C 15.46875 -16.695312 15.097656 -16.984375 14.359375 -16.984375 C 14.316406 -16.984375 14.296875 -17.039062 14.296875 -17.15625 C 14.296875 -17.269531 14.316406 -17.328125 14.359375 -17.328125 L 14.96875 -17.296875 C 15.300781 -17.253906 15.707031 -17.234375 16.1875 -17.234375 C 16.539062 -17.234375 16.957031 -17.253906 17.4375 -17.296875 L 18.546875 -17.328125 C 18.578125 -17.328125 18.59375 -17.269531 18.59375 -17.15625 C 18.59375 -17.039062 18.578125 -16.984375 18.546875 -16.984375 C 17.929688 -16.984375 17.394531 -16.800781 16.9375 -16.4375 C 16.476562 -16.082031 16.082031 -15.472656 15.75 -14.609375 L 13.96875 -10.203125 L 17.484375 -2.71875 L 22.234375 -14.65625 C 22.378906 -15.0625 22.453125 -15.414062 22.453125 -15.71875 C 22.453125 -16.5625 21.785156 -16.984375 20.453125 -16.984375 C 20.398438 -16.984375 20.375 -17.039062 20.375 -17.15625 C 20.375 -17.269531 20.398438 -17.328125 20.453125 -17.328125 L 21.640625 -17.296875 C 22.273438 -17.253906 22.84375 -17.234375 23.34375 -17.234375 C 23.726562 -17.234375 24.160156 -17.253906 24.640625 -17.296875 Z M 25.8125 -17.328125 "/></g></g></g><g fill="#523e27" fill-opacity="1"><g transform="translate(117.889724, 295.483046)"><g><path d="M 13.28125 -4.15625 C 13.28125 -4.207031 13.332031 -4.226562 13.4375 -4.21875 C 13.550781 -4.21875 13.609375 -4.1875 13.609375 -4.125 C 13.441406 -2.925781 13.359375 -1.691406 13.359375 -0.421875 C 13.359375 -0.265625 13.328125 -0.15625 13.265625 -0.09375 C 13.203125 -0.03125 13.085938 0 12.921875 0 L 1.1875 0 C 1.15625 0 1.140625 -0.0507812 1.140625 -0.15625 C 1.140625 -0.269531 1.15625 -0.328125 1.1875 -0.328125 C 1.875 -0.328125 2.375 -0.375 2.6875 -0.46875 C 3 -0.5625 3.210938 -0.738281 3.328125 -1 C 3.441406 -1.269531 3.5 -1.6875 3.5 -2.25 L 3.5 -15.078125 C 3.5 -15.628906 3.441406 -16.035156 3.328125 -16.296875 C 3.210938 -16.554688 3 -16.734375 2.6875 -16.828125 C 2.375 -16.929688 1.875 -16.984375 1.1875 -16.984375 C 1.15625 -16.984375 1.140625 -17.039062 1.140625 -17.15625 C 1.140625 -17.269531 1.15625 -17.328125 1.1875 -17.328125 L 12.453125 -17.328125 C 12.609375 -17.328125 12.6875 -17.242188 12.6875 -17.078125 L 12.75 -13.609375 C 12.75 -13.554688 12.695312 -13.53125 12.59375 -13.53125 C 12.5 -13.53125 12.453125 -13.554688 12.453125 -13.609375 C 12.335938 -14.609375 11.992188 -15.375 11.421875 -15.90625 C 10.847656 -16.445312 10.097656 -16.71875 9.171875 -16.71875 L 7.65625 -16.71875 C 6.78125 -16.71875 6.203125 -16.597656 5.921875 -16.359375 C 5.648438 -16.117188 5.515625 -15.65625 5.515625 -14.96875 L 5.515625 -9.3125 L 8.703125 -9.3125 C 9.628906 -9.3125 10.300781 -9.46875 10.71875 -9.78125 C 11.132812 -10.09375 11.34375 -10.601562 11.34375 -11.3125 C 11.34375 -11.34375 11.394531 -11.359375 11.5 -11.359375 C 11.613281 -11.359375 11.671875 -11.34375 11.671875 -11.3125 L 11.640625 -9.015625 C 11.640625 -8.472656 11.648438 -8.0625 11.671875 -7.78125 L 11.703125 -6.40625 C 11.703125 -6.363281 11.644531 -6.34375 11.53125 -6.34375 C 11.414062 -6.34375 11.359375 -6.363281 11.359375 -6.40625 C 11.359375 -7.21875 11.144531 -7.800781 10.71875 -8.15625 C 10.300781 -8.519531 9.609375 -8.703125 8.640625 -8.703125 L 5.515625 -8.703125 L 5.515625 -2.359375 C 5.515625 -1.878906 5.566406 -1.519531 5.671875 -1.28125 C 5.785156 -1.039062 5.984375 -0.867188 6.265625 -0.765625 C 6.546875 -0.660156 6.972656 -0.609375 7.546875 -0.609375 L 9.5 -0.609375 C 10.488281 -0.609375 11.304688 -0.914062 11.953125 -1.53125 C 12.597656 -2.15625 13.039062 -3.03125 13.28125 -4.15625 Z M 13.28125 -4.15625 "/></g></g></g><g fill="#523e27" fill-opacity="1"><g transform="translate(132.855768, 295.483046)"><g><path d="M 8.515625 0.109375 C 7.953125 0.109375 7.3125 0.0820312 6.59375 0.03125 C 6.320312 0.0078125 5.984375 -0.0078125 5.578125 -0.03125 C 5.179688 -0.0507812 4.742188 -0.0625 4.265625 -0.0625 L 2.359375 -0.03125 C 2.003906 -0.0078125 1.53125 0 0.9375 0 C 0.90625 0 0.890625 -0.0507812 0.890625 -0.15625 C 0.890625 -0.269531 0.90625 -0.328125 0.9375 -0.328125 C 1.625 -0.328125 2.125 -0.375 2.4375 -0.46875 C 2.75 -0.5625 2.960938 -0.738281 3.078125 -1 C 3.203125 -1.269531 3.265625 -1.6875 3.265625 -2.25 L 3.265625 -15.078125 C 3.265625 -15.628906 3.207031 -16.035156 3.09375 -16.296875 C 2.988281 -16.554688 2.78125 -16.734375 2.46875 -16.828125 C 2.15625 -16.929688 1.65625 -16.984375 0.96875 -16.984375 C 0.9375 -16.984375 0.921875 -17.039062 0.921875 -17.15625 C 0.921875 -17.269531 0.9375 -17.328125 0.96875 -17.328125 L 2.359375 -17.296875 C 3.171875 -17.253906 3.804688 -17.234375 4.265625 -17.234375 C 4.972656 -17.234375 5.664062 -17.265625 6.34375 -17.328125 C 7.226562 -17.359375 7.820312 -17.375 8.125 -17.375 C 10.039062 -17.375 11.738281 -17.003906 13.21875 -16.265625 C 14.695312 -15.523438 15.84375 -14.519531 16.65625 -13.25 C 17.46875 -11.976562 17.875 -10.546875 17.875 -8.953125 C 17.875 -7.160156 17.453125 -5.578125 16.609375 -4.203125 C 15.773438 -2.828125 14.640625 -1.765625 13.203125 -1.015625 C 11.773438 -0.265625 10.210938 0.109375 8.515625 0.109375 Z M 8.234375 -0.328125 C 9.648438 -0.328125 10.910156 -0.632812 12.015625 -1.25 C 13.117188 -1.875 13.976562 -2.789062 14.59375 -4 C 15.207031 -5.21875 15.515625 -6.664062 15.515625 -8.34375 C 15.515625 -9.945312 15.21875 -11.398438 14.625 -12.703125 C 14.039062 -14.003906 13.207031 -15.035156 12.125 -15.796875 C 11.039062 -16.554688 9.789062 -16.9375 8.375 -16.9375 C 7.570312 -16.9375 6.957031 -16.890625 6.53125 -16.796875 C 6.113281 -16.703125 5.800781 -16.519531 5.59375 -16.25 C 5.394531 -15.988281 5.296875 -15.582031 5.296875 -15.03125 L 5.296875 -2.546875 C 5.296875 -1.734375 5.492188 -1.160156 5.890625 -0.828125 C 6.285156 -0.492188 7.066406 -0.328125 8.234375 -0.328125 Z M 8.234375 -0.328125 "/></g></g></g><g fill="#523e27" fill-opacity="1"><g transform="translate(152.089909, 295.483046)"><g><path d="M 8.515625 0.109375 C 7.953125 0.109375 7.3125 0.0820312 6.59375 0.03125 C 6.320312 0.0078125 5.984375 -0.0078125 5.578125 -0.03125 C 5.179688 -0.0507812 4.742188 -0.0625 4.265625 -0.0625 L 2.359375 -0.03125 C 2.003906 -0.0078125 1.53125 0 0.9375 0 C 0.90625 0 0.890625 -0.0507812 0.890625 -0.15625 C 0.890625 -0.269531 0.90625 -0.328125 0.9375 -0.328125 C 1.625 -0.328125 2.125 -0.375 2.4375 -0.46875 C 2.75 -0.5625 2.960938 -0.738281 3.078125 -1 C 3.203125 -1.269531 3.265625 -1.6875 3.265625 -2.25 L 3.265625 -15.078125 C 3.265625 -15.628906 3.207031 -16.035156 3.09375 -16.296875 C 2.988281 -16.554688 2.78125 -16.734375 2.46875 -16.828125 C 2.15625 -16.929688 1.65625 -16.984375 0.96875 -16.984375 C 0.9375 -16.984375 0.921875 -17.039062 0.921875 -17.15625 C 0.921875 -17.269531 0.9375 -17.328125 0.96875 -17.328125 L 2.359375 -17.296875 C 3.171875 -17.253906 3.804688 -17.234375 4.265625 -17.234375 C 4.972656 -17.234375 5.664062 -17.265625 6.34375 -17.328125 C 7.226562 -17.359375 7.820312 -17.375 8.125 -17.375 C 10.039062 -17.375 11.738281 -17.003906 13.21875 -16.265625 C 14.695312 -15.523438 15.84375 -14.519531 16.65625 -13.25 C 17.46875 -11.976562 17.875 -10.546875 17.875 -8.953125 C 17.875 -7.160156 17.453125 -5.578125 16.609375 -4.203125 C 15.773438 -2.828125 14.640625 -1.765625 13.203125 -1.015625 C 11.773438 -0.265625 10.210938 0.109375 8.515625 0.109375 Z M 8.234375 -0.328125 C 9.648438 -0.328125 10.910156 -0.632812 12.015625 -1.25 C 13.117188 -1.875 13.976562 -2.789062 14.59375 -4 C 15.207031 -5.21875 15.515625 -6.664062 15.515625 -8.34375 C 15.515625 -9.945312 15.21875 -11.398438 14.625 -12.703125 C 14.039062 -14.003906 13.207031 -15.035156 12.125 -15.796875 C 11.039062 -16.554688 9.789062 -16.9375 8.375 -16.9375 C 7.570312 -16.9375 6.957031 -16.890625 6.53125 -16.796875 C 6.113281 -16.703125 5.800781 -16.519531 5.59375 -16.25 C 5.394531 -15.988281 5.296875 -15.582031 5.296875 -15.03125 L 5.296875 -2.546875 C 5.296875 -1.734375 5.492188 -1.160156 5.890625 -0.828125 C 6.285156 -0.492188 7.066406 -0.328125 8.234375 -0.328125 Z M 8.234375 -0.328125 "/></g></g></g><g fill="#523e27" fill-opacity="1"><g transform="translate(171.32405, 295.483046)"><g><path d="M 5.65625 -2.25 C 5.65625 -1.675781 5.707031 -1.257812 5.8125 -1 C 5.925781 -0.738281 6.140625 -0.5625 6.453125 -0.46875 C 6.773438 -0.375 7.273438 -0.328125 7.953125 -0.328125 C 7.992188 -0.328125 8.015625 -0.269531 8.015625 -0.15625 C 8.015625 -0.0507812 7.992188 0 7.953125 0 C 7.378906 0 6.925781 -0.0078125 6.59375 -0.03125 L 4.59375 -0.0625 L 2.6875 -0.03125 C 2.332031 -0.0078125 1.863281 0 1.28125 0 C 1.21875 0 1.1875 -0.0507812 1.1875 -0.15625 C 1.1875 -0.269531 1.21875 -0.328125 1.28125 -0.328125 C 1.957031 -0.328125 2.453125 -0.375 2.765625 -0.46875 C 3.085938 -0.5625 3.304688 -0.738281 3.421875 -1 C 3.546875 -1.269531 3.609375 -1.6875 3.609375 -2.25 L 3.609375 -15.078125 C 3.609375 -15.628906 3.546875 -16.035156 3.421875 -16.296875 C 3.304688 -16.554688 3.085938 -16.734375 2.765625 -16.828125 C 2.453125 -16.929688 1.957031 -16.984375 1.28125 -16.984375 C 1.21875 -16.984375 1.1875 -17.039062 1.1875 -17.15625 C 1.1875 -17.269531 1.21875 -17.328125 1.28125 -17.328125 L 2.6875 -17.296875 C 3.46875 -17.253906 4.101562 -17.234375 4.59375 -17.234375 C 5.132812 -17.234375 5.8125 -17.253906 6.625 -17.296875 L 7.953125 -17.328125 C 7.992188 -17.328125 8.015625 -17.269531 8.015625 -17.15625 C 8.015625 -17.039062 7.992188 -16.984375 7.953125 -16.984375 C 7.285156 -16.984375 6.789062 -16.925781 6.46875 -16.8125 C 6.144531 -16.707031 5.925781 -16.519531 5.8125 -16.25 C 5.707031 -15.988281 5.65625 -15.582031 5.65625 -15.03125 Z M 5.65625 -2.25 "/></g></g></g><g fill="#523e27" fill-opacity="1"><g transform="translate(180.580832, 295.483046)"><g><path d="M 19.59375 -17.328125 C 19.65625 -17.328125 19.6875 -17.269531 19.6875 -17.15625 C 19.6875 -17.039062 19.65625 -16.984375 19.59375 -16.984375 C 18.832031 -16.984375 18.269531 -16.757812 17.90625 -16.3125 C 17.550781 -15.863281 17.375 -15.15625 17.375 -14.1875 L 17.375 0.328125 C 17.375 0.390625 17.328125 0.425781 17.234375 0.4375 C 17.148438 0.457031 17.085938 0.453125 17.046875 0.421875 L 4.125 -15.046875 L 4.046875 -15.15625 L 4.046875 -3.109375 C 4.046875 -2.140625 4.21875 -1.429688 4.5625 -0.984375 C 4.914062 -0.546875 5.460938 -0.328125 6.203125 -0.328125 C 6.265625 -0.328125 6.296875 -0.269531 6.296875 -0.15625 C 6.296875 -0.0507812 6.265625 0 6.203125 0 C 5.765625 0 5.414062 -0.0078125 5.15625 -0.03125 L 3.734375 -0.0625 L 2.265625 -0.03125 C 1.992188 -0.0078125 1.597656 0 1.078125 0 C 1.046875 0 1.03125 -0.0507812 1.03125 -0.15625 C 1.03125 -0.269531 1.046875 -0.328125 1.078125 -0.328125 C 1.867188 -0.328125 2.445312 -0.546875 2.8125 -0.984375 C 3.175781 -1.429688 3.359375 -2.140625 3.359375 -3.109375 L 3.359375 -15.890625 C 2.597656 -16.617188 1.828125 -16.984375 1.046875 -16.984375 C 0.992188 -16.984375 0.96875 -17.039062 0.96875 -17.15625 C 0.96875 -17.269531 0.992188 -17.328125 1.046875 -17.328125 L 2.078125 -17.296875 C 2.296875 -17.273438 2.609375 -17.265625 3.015625 -17.265625 L 4.328125 -17.296875 C 4.472656 -17.316406 4.664062 -17.328125 4.90625 -17.328125 C 5.050781 -17.328125 5.15625 -17.289062 5.21875 -17.21875 C 5.289062 -17.15625 5.398438 -17.015625 5.546875 -16.796875 C 5.765625 -16.460938 5.984375 -16.160156 6.203125 -15.890625 L 16.6875 -3.1875 L 16.6875 -14.1875 C 16.6875 -15.15625 16.519531 -15.863281 16.1875 -16.3125 C 15.851562 -16.757812 15.304688 -16.984375 14.546875 -16.984375 C 14.515625 -16.984375 14.5 -17.039062 14.5 -17.15625 C 14.5 -17.269531 14.515625 -17.328125 14.546875 -17.328125 L 15.640625 -17.296875 C 16.222656 -17.253906 16.691406 -17.234375 17.046875 -17.234375 C 17.398438 -17.234375 17.867188 -17.253906 18.453125 -17.296875 Z M 19.59375 -17.328125 "/></g></g></g><g fill="#523e27" fill-opacity="1"><g transform="translate(200.75728, 295.483046)"><g><path d="M 11.390625 0.328125 C 9.335938 0.328125 7.550781 -0.078125 6.03125 -0.890625 C 4.519531 -1.703125 3.363281 -2.796875 2.5625 -4.171875 C 1.757812 -5.546875 1.359375 -7.066406 1.359375 -8.734375 C 1.359375 -10.503906 1.816406 -12.0625 2.734375 -13.40625 C 3.648438 -14.757812 4.898438 -15.800781 6.484375 -16.53125 C 8.078125 -17.257812 9.859375 -17.625 11.828125 -17.625 C 12.816406 -17.625 13.738281 -17.535156 14.59375 -17.359375 C 15.457031 -17.191406 16.164062 -16.941406 16.71875 -16.609375 C 16.863281 -16.535156 16.945312 -16.472656 16.96875 -16.421875 C 17 -16.378906 17.023438 -16.238281 17.046875 -16 L 17.40625 -12.640625 C 17.40625 -12.585938 17.351562 -12.550781 17.25 -12.53125 C 17.15625 -12.507812 17.097656 -12.523438 17.078125 -12.578125 C 16.671875 -13.929688 15.984375 -15.03125 15.015625 -15.875 C 14.054688 -16.726562 12.785156 -17.15625 11.203125 -17.15625 C 9.796875 -17.15625 8.523438 -16.832031 7.390625 -16.1875 C 6.253906 -15.539062 5.359375 -14.609375 4.703125 -13.390625 C 4.046875 -12.171875 3.71875 -10.753906 3.71875 -9.140625 C 3.71875 -7.535156 4.039062 -6.046875 4.6875 -4.671875 C 5.332031 -3.296875 6.285156 -2.1875 7.546875 -1.34375 C 8.816406 -0.5 10.335938 -0.078125 12.109375 -0.078125 C 13.390625 -0.078125 14.28125 -0.320312 14.78125 -0.8125 C 15.289062 -1.300781 15.546875 -2.1875 15.546875 -3.46875 C 15.546875 -4.425781 15.484375 -5.09375 15.359375 -5.46875 C 15.242188 -5.851562 14.988281 -6.109375 14.59375 -6.234375 C 14.195312 -6.367188 13.488281 -6.4375 12.46875 -6.4375 C 12.363281 -6.4375 12.3125 -6.507812 12.3125 -6.65625 C 12.3125 -6.707031 12.320312 -6.753906 12.34375 -6.796875 C 12.375 -6.847656 12.410156 -6.875 12.453125 -6.875 C 13.921875 -6.78125 15.109375 -6.734375 16.015625 -6.734375 C 16.890625 -6.734375 17.816406 -6.757812 18.796875 -6.8125 C 18.867188 -6.8125 18.910156 -6.75 18.921875 -6.625 C 18.929688 -6.5 18.890625 -6.4375 18.796875 -6.4375 C 18.347656 -6.445312 18.035156 -6.382812 17.859375 -6.25 C 17.679688 -6.113281 17.566406 -5.832031 17.515625 -5.40625 C 17.460938 -4.976562 17.4375 -4.238281 17.4375 -3.1875 C 17.4375 -2.351562 17.46875 -1.757812 17.53125 -1.40625 C 17.59375 -1.0625 17.625 -0.84375 17.625 -0.75 C 17.625 -0.632812 17.601562 -0.554688 17.5625 -0.515625 C 17.53125 -0.484375 17.453125 -0.453125 17.328125 -0.421875 C 15.035156 0.078125 13.054688 0.328125 11.390625 0.328125 Z M 11.390625 0.328125 "/></g></g></g><g fill="#523e27" fill-opacity="1"><g transform="translate(220.628868, 295.483046)"><g/></g></g><g fill="#523e27" fill-opacity="1"><g transform="translate(227.114155, 295.483046)"><g><path d="M 8.515625 0.109375 C 7.953125 0.109375 7.3125 0.0820312 6.59375 0.03125 C 6.320312 0.0078125 5.984375 -0.0078125 5.578125 -0.03125 C 5.179688 -0.0507812 4.742188 -0.0625 4.265625 -0.0625 L 2.359375 -0.03125 C 2.003906 -0.0078125 1.53125 0 0.9375 0 C 0.90625 0 0.890625 -0.0507812 0.890625 -0.15625 C 0.890625 -0.269531 0.90625 -0.328125 0.9375 -0.328125 C 1.625 -0.328125 2.125 -0.375 2.4375 -0.46875 C 2.75 -0.5625 2.960938 -0.738281 3.078125 -1 C 3.203125 -1.269531 3.265625 -1.6875 3.265625 -2.25 L 3.265625 -15.078125 C 3.265625 -15.628906 3.207031 -16.035156 3.09375 -16.296875 C 2.988281 -16.554688 2.78125 -16.734375 2.46875 -16.828125 C 2.15625 -16.929688 1.65625 -16.984375 0.96875 -16.984375 C 0.9375 -16.984375 0.921875 -17.039062 0.921875 -17.15625 C 0.921875 -17.269531 0.9375 -17.328125 0.96875 -17.328125 L 2.359375 -17.296875 C 3.171875 -17.253906 3.804688 -17.234375 4.265625 -17.234375 C 4.972656 -17.234375 5.664062 -17.265625 6.34375 -17.328125 C 7.226562 -17.359375 7.820312 -17.375 8.125 -17.375 C 10.039062 -17.375 11.738281 -17.003906 13.21875 -16.265625 C 14.695312 -15.523438 15.84375 -14.519531 16.65625 -13.25 C 17.46875 -11.976562 17.875 -10.546875 17.875 -8.953125 C 17.875 -7.160156 17.453125 -5.578125 16.609375 -4.203125 C 15.773438 -2.828125 14.640625 -1.765625 13.203125 -1.015625 C 11.773438 -0.265625 10.210938 0.109375 8.515625 0.109375 Z M 8.234375 -0.328125 C 9.648438 -0.328125 10.910156 -0.632812 12.015625 -1.25 C 13.117188 -1.875 13.976562 -2.789062 14.59375 -4 C 15.207031 -5.21875 15.515625 -6.664062 15.515625 -8.34375 C 15.515625 -9.945312 15.21875 -11.398438 14.625 -12.703125 C 14.039062 -14.003906 13.207031 -15.035156 12.125 -15.796875 C 11.039062 -16.554688 9.789062 -16.9375 8.375 -16.9375 C 7.570312 -16.9375 6.957031 -16.890625 6.53125 -16.796875 C 6.113281 -16.703125 5.800781 -16.519531 5.59375 -16.25 C 5.394531 -15.988281 5.296875 -15.582031 5.296875 -15.03125 L 5.296875 -2.546875 C 5.296875 -1.734375 5.492188 -1.160156 5.890625 -0.828125 C 6.285156 -0.492188 7.066406 -0.328125 8.234375 -0.328125 Z M 8.234375 -0.328125 "/></g></g></g><g fill="#523e27" fill-opacity="1"><g transform="translate(246.348296, 295.483046)"><g><path d="M 19.453125 -0.328125 C 19.523438 -0.328125 19.5625 -0.269531 19.5625 -0.15625 C 19.5625 -0.0507812 19.523438 0 19.453125 0 C 19.109375 0 18.566406 -0.0195312 17.828125 -0.0625 C 17.085938 -0.09375 16.539062 -0.109375 16.1875 -0.109375 C 15.757812 -0.109375 15.234375 -0.09375 14.609375 -0.0625 C 14.015625 -0.0195312 13.550781 0 13.21875 0 C 13.144531 0 13.109375 -0.0507812 13.109375 -0.15625 C 13.109375 -0.269531 13.144531 -0.328125 13.21875 -0.328125 C 13.882812 -0.328125 14.359375 -0.382812 14.640625 -0.5 C 14.929688 -0.625 15.078125 -0.847656 15.078125 -1.171875 C 15.078125 -1.441406 14.945312 -1.851562 14.6875 -2.40625 L 12.3125 -7.40625 L 5.6875 -7.40625 L 4.046875 -3.609375 C 3.804688 -3.046875 3.6875 -2.535156 3.6875 -2.078125 C 3.6875 -0.910156 4.582031 -0.328125 6.375 -0.328125 C 6.46875 -0.328125 6.515625 -0.269531 6.515625 -0.15625 C 6.515625 -0.0507812 6.46875 0 6.375 0 C 6.039062 0 5.5625 -0.0195312 4.9375 -0.0625 C 4.226562 -0.09375 3.617188 -0.109375 3.109375 -0.109375 C 2.640625 -0.109375 2.070312 -0.09375 1.40625 -0.0625 C 0.851562 -0.0195312 0.382812 0 0 0 C -0.09375 0 -0.140625 -0.0507812 -0.140625 -0.15625 C -0.140625 -0.269531 -0.09375 -0.328125 0 -0.328125 C 0.519531 -0.328125 0.957031 -0.425781 1.3125 -0.625 C 1.675781 -0.820312 2.023438 -1.164062 2.359375 -1.65625 C 2.691406 -2.15625 3.0625 -2.890625 3.46875 -3.859375 L 9.3125 -17.546875 C 9.351562 -17.597656 9.425781 -17.625 9.53125 -17.625 C 9.644531 -17.625 9.710938 -17.597656 9.734375 -17.546875 L 16.328125 -3.796875 C 16.953125 -2.453125 17.484375 -1.535156 17.921875 -1.046875 C 18.367188 -0.566406 18.878906 -0.328125 19.453125 -0.328125 Z M 5.9375 -7.984375 L 12.03125 -7.984375 L 8.8125 -14.6875 Z M 5.9375 -7.984375 "/></g></g></g><g fill="#523e27" fill-opacity="1"><g transform="translate(265.859589, 295.483046)"><g><path d="M 17.078125 -17.328125 C 17.109375 -17.328125 17.125 -17.269531 17.125 -17.15625 C 17.125 -17.039062 17.109375 -16.984375 17.078125 -16.984375 C 16.429688 -16.984375 15.75 -16.71875 15.03125 -16.1875 C 14.320312 -15.664062 13.691406 -14.953125 13.140625 -14.046875 L 9.5625 -8.515625 L 9.5625 -2.25 C 9.5625 -1.675781 9.613281 -1.257812 9.71875 -1 C 9.832031 -0.738281 10.039062 -0.5625 10.34375 -0.46875 C 10.65625 -0.375 11.148438 -0.328125 11.828125 -0.328125 C 11.890625 -0.328125 11.921875 -0.269531 11.921875 -0.15625 C 11.921875 -0.0507812 11.890625 0 11.828125 0 C 11.265625 0 10.820312 -0.0078125 10.5 -0.03125 L 8.53125 -0.0625 L 6.625 -0.03125 C 6.269531 -0.0078125 5.800781 0 5.21875 0 C 5.175781 0 5.15625 -0.0507812 5.15625 -0.15625 C 5.15625 -0.269531 5.175781 -0.328125 5.21875 -0.328125 C 5.894531 -0.328125 6.390625 -0.375 6.703125 -0.46875 C 7.015625 -0.5625 7.234375 -0.738281 7.359375 -1 C 7.484375 -1.269531 7.546875 -1.6875 7.546875 -2.25 L 7.546875 -8.0625 L 3.046875 -14.71875 C 2.492188 -15.570312 1.984375 -16.160156 1.515625 -16.484375 C 1.054688 -16.816406 0.550781 -16.984375 0 -16.984375 C -0.0507812 -16.984375 -0.078125 -17.039062 -0.078125 -17.15625 C -0.078125 -17.269531 -0.0507812 -17.328125 0 -17.328125 L 0.96875 -17.296875 C 1.414062 -17.253906 1.738281 -17.234375 1.9375 -17.234375 C 2.5625 -17.234375 3.375 -17.253906 4.375 -17.296875 L 5.9375 -17.328125 C 5.96875 -17.328125 5.984375 -17.269531 5.984375 -17.15625 C 5.984375 -17.039062 5.96875 -16.984375 5.9375 -16.984375 C 5.03125 -16.984375 4.578125 -16.773438 4.578125 -16.359375 C 4.578125 -16.171875 4.675781 -15.929688 4.875 -15.640625 L 9.234375 -9.171875 L 12.453125 -14.21875 C 12.867188 -14.914062 13.078125 -15.488281 13.078125 -15.9375 C 13.078125 -16.632812 12.582031 -16.984375 11.59375 -16.984375 C 11.550781 -16.984375 11.53125 -17.039062 11.53125 -17.15625 C 11.53125 -17.269531 11.550781 -17.328125 11.59375 -17.328125 L 12.921875 -17.296875 C 13.660156 -17.253906 14.320312 -17.234375 14.90625 -17.234375 C 15.226562 -17.234375 15.609375 -17.253906 16.046875 -17.296875 Z M 17.078125 -17.328125 "/></g></g></g></svg>